<svg width="34" height="33" viewBox="0 0 34 33" fill="none" xmlns="http://www.w3.org/2000/svg">
<path d="M26.1446 28.7882H8.44287C7.53119 28.7882 6.65685 28.426 6.01219 27.7814C5.36754 27.1367 5.00537 26.2624 5.00537 25.3507V7.64893C5.00537 6.73724 5.36754 5.8629 6.01219 5.21825C6.65685 4.57359 7.53119 4.21143 8.44287 4.21143H26.1446C27.0563 4.21143 27.9306 4.57359 28.5753 5.21825C29.22 5.8629 29.5821 6.73724 29.5821 7.64893V25.3507C29.5821 26.2624 29.22 27.1367 28.5753 27.7814C27.9306 28.426 27.0563 28.7882 26.1446 28.7882ZM8.44287 5.58643C7.89586 5.58643 7.37126 5.80372 6.98446 6.19052C6.59767 6.57731 6.38037 7.10192 6.38037 7.64893V25.3507C6.38037 25.8977 6.59767 26.4223 6.98446 26.8091C7.37126 27.1959 7.89586 27.4132 8.44287 27.4132H26.1446C26.6916 27.4132 27.2162 27.1959 27.603 26.8091C27.9898 26.4223 28.2071 25.8977 28.2071 25.3507V7.64893C28.2071 7.10192 27.9898 6.57731 27.603 6.19052C27.2162 5.80372 26.6916 5.58643 26.1446 5.58643H8.44287Z" fill="white"/>
<path d="M17.2942 22.8169C16.0448 22.8156 14.8239 22.4438 13.7857 21.7487C12.7476 21.0535 11.9389 20.0662 11.4617 18.9116C10.9846 17.7569 10.8606 16.4866 11.1053 15.2615C11.3499 14.0363 11.9523 12.9112 12.8364 12.0283C13.7204 11.1454 14.8463 10.5445 16.0718 10.3014C17.2973 10.0583 18.5674 10.184 19.7214 10.6627C20.8755 11.1413 21.8617 11.9513 22.5555 12.9903C23.2493 14.0294 23.6194 15.2508 23.6192 16.5002C23.617 18.1762 22.9496 19.7829 21.7637 20.9673C20.5778 22.1517 18.9702 22.8169 17.2942 22.8169ZM17.2942 11.5502C16.3171 11.5515 15.3623 11.8424 14.5505 12.3861C13.7387 12.9298 13.1062 13.7019 12.7329 14.6048C12.3596 15.5078 12.2623 16.5011 12.4532 17.4593C12.6442 18.4176 13.1148 19.2977 13.8057 19.9886C14.4966 20.6795 15.3768 21.1501 16.335 21.3411C17.2932 21.532 18.2866 21.4347 19.1895 21.0615C20.0925 20.6882 20.8646 20.0557 21.4082 19.2438C21.9519 18.432 22.2428 17.4772 22.2442 16.5002C22.2442 15.1873 21.7226 13.9283 20.7943 13C19.866 12.0717 18.607 11.5502 17.2942 11.5502Z" fill="white"/>
<path d="M24.4439 10.8693C25.2603 10.8693 25.9221 10.2076 25.9221 9.39121C25.9221 8.57486 25.2603 7.91309 24.4439 7.91309C23.6276 7.91309 22.9658 8.57486 22.9658 9.39121C22.9658 10.2076 23.6276 10.8693 24.4439 10.8693Z" fill="white"/>
</svg>
