<svg width="33" height="21" viewBox="0 0 33 21" fill="none" xmlns="http://www.w3.org/2000/svg">
<path d="M0.793945 2.88905C0.793945 1.70858 1.61608 1.2426 2.62794 1.18047L7.3394 1.21154C7.62399 1.21154 7.87695 1.39793 7.97181 1.67751C9.04691 5.09467 10.375 7.2071 11.956 9.59911C12.0509 9.7855 12.209 9.8787 12.3671 9.8787C12.4936 9.8787 12.62 9.81657 12.7149 9.66124L12.8098 9.31953L12.8414 3.94527C12.8414 3.16864 12.4619 3.04438 11.5766 2.92012C11.2287 2.85799 11.0074 2.54734 11.0074 2.23669C11.0074 2.17456 11.0074 2.11243 11.039 2.0503C11.4817 0.714497 12.873 0.0310651 14.8335 0.0310651L16.6042 0C18.0588 0 19.3868 0.621302 19.3868 2.45414V9.50592C19.5133 9.59911 19.6398 9.66124 19.7979 9.66124C20.0509 9.66124 20.3671 9.50592 20.62 9.10207C22.2643 6.83432 24.1299 4.13166 24.3829 2.70266C24.3829 2.64053 24.4145 2.60947 24.4461 2.54734C24.7939 1.86391 25.6793 1.39793 26.0588 1.27367C26.122 1.2426 26.2169 1.21154 26.3434 1.21154H31.2445L31.5607 1.2426C32.0351 1.2426 32.3829 1.55325 32.541 1.83284C32.8256 2.26775 32.7623 2.73373 32.7939 2.92012V3.13757C32.3196 5.9645 29.0311 9.13314 27.6398 11.1834C27.4501 11.432 27.3552 11.6494 27.3552 11.8669C27.3552 12.0533 27.4501 12.2396 27.6082 12.426L32.2248 18.142C32.4777 18.4837 32.6042 18.8876 32.6042 19.2293C32.6042 20.2544 31.624 20.8447 30.6754 20.9379L30.1378 20.9689H25.3315C25.2366 20.9689 25.1734 21 25.0785 21C24.541 21 24.0983 20.7204 23.7821 20.4098C22.7702 19.1982 21.79 17.9556 20.8098 16.7441C20.62 16.4956 20.5568 16.4645 20.3671 16.3402C20.1457 17.2411 19.956 18.1731 19.7347 19.105L19.6398 19.6331C19.4817 20.1923 19.0706 20.7825 18.3117 20.9379L17.869 20.9689H14.7702C9.29987 20.9689 4.39869 13.3269 0.952048 3.78994C0.857186 3.54142 0.793945 3.1997 0.793945 2.88905ZM19.7979 10.9349C18.9758 10.9349 18.0588 10.4689 18.0588 9.59911V2.45414C18.0588 1.61538 17.6793 1.30473 16.6358 1.30473L14.8335 1.36686C13.8216 1.36686 13.2524 1.52219 12.7781 1.83284C13.5054 2.17456 14.1694 2.64053 14.1694 3.94527V9.41272C14.0746 10.5 13.1576 11.2145 12.2722 11.2145C11.6714 11.2145 11.1339 10.8728 10.8177 10.3136C9.39474 8.20118 8.19316 6.21302 7.14968 3.35503L6.86509 2.54734L2.65956 2.51627C2.09039 2.51627 2.15363 2.54734 2.15363 2.82692C2.15363 3.01331 2.18525 3.26183 2.21687 3.41716L2.8809 5.15681C6.32754 13.9172 10.6596 19.6642 14.7702 19.6642H17.9323C18.375 19.6642 18.3434 19.1361 18.4382 18.8254L19.039 16.0917C19.1655 15.8121 19.2603 15.5636 19.4817 15.3462C19.7347 15.0976 20.0192 15.0044 20.3038 15.0044C20.9046 15.0044 21.4738 15.4704 21.8532 15.9053L24.541 19.2604C24.7623 19.6021 24.952 19.6642 25.0785 19.6642H30.2959C30.8019 19.6642 31.2445 19.5089 31.2445 19.1982C31.2445 19.105 31.2129 18.9808 31.1497 18.8876L26.5647 13.2648C26.1853 12.7988 26.0271 12.3328 26.0271 11.8669C26.0271 11.3698 26.2169 10.8728 26.5331 10.4379C27.8611 8.48077 30.707 5.68491 31.371 3.38609L31.4659 2.98225C31.4343 2.82692 31.4343 2.70266 31.4026 2.54734H26.4382C26.122 2.6716 25.869 2.85799 25.6793 3.10651L25.4896 3.69675C24.7623 5.68491 22.7702 8.41864 21.3473 10.3136C20.873 10.7485 20.3354 10.9349 19.7979 10.9349Z" fill="white"/>
</svg>
