<svg width="35" height="27" viewBox="0 0 35 27" fill="none" xmlns="http://www.w3.org/2000/svg">
<path d="M22.6763 12.7383L15.3638 7.86331C15.226 7.77141 15.0659 7.71865 14.9005 7.71067C14.7351 7.70269 14.5706 7.73979 14.4247 7.81801C14.2787 7.89623 14.1568 8.01262 14.0718 8.15476C13.9869 8.2969 13.9421 8.45944 13.9424 8.62503V18.375C13.9421 18.5406 13.9869 18.7032 14.0718 18.8453C14.1568 18.9874 14.2787 19.1038 14.4247 19.1821C14.5706 19.2603 14.7351 19.2974 14.9005 19.2894C15.0659 19.2814 15.226 19.2287 15.3638 19.1367L22.6763 14.2617C22.8019 14.1784 22.9051 14.0652 22.9764 13.9323C23.0477 13.7994 23.085 13.6509 23.085 13.5C23.085 13.3492 23.0477 13.2007 22.9764 13.0678C22.9051 12.9349 22.8019 12.8217 22.6763 12.7383ZM15.7705 16.6673V10.3328L20.5206 13.5L15.7705 16.6673ZM33.1986 4.66409C33.0664 4.15024 32.814 3.67514 32.4623 3.27786C32.1106 2.88059 31.6695 2.5725 31.1755 2.37894C25.9775 0.366476 17.6398 0.398468 17.2939 0.398468C16.9481 0.398468 8.61035 0.366476 3.40629 2.37894C2.91339 2.57329 2.47359 2.88173 2.12297 3.27896C1.77236 3.67618 1.52091 4.15088 1.38926 4.66409C1.00078 6.17077 0.536133 8.92972 0.536133 13.5C0.536133 18.0703 1.00078 20.8293 1.38926 22.336C1.52152 22.8498 1.77389 23.3249 2.12561 23.7222C2.47733 24.1195 2.91835 24.4276 3.41238 24.6211C8.61035 26.6336 16.9466 26.6016 17.2939 26.6016H17.4021C18.4548 26.6016 26.238 26.5346 31.1816 24.6211C31.6756 24.4276 32.1167 24.1195 32.4684 23.7222C32.8201 23.3249 33.0725 22.8498 33.2047 22.336C33.5932 20.8323 34.0578 18.081 34.0578 13.5C34.0578 8.91905 33.5947 6.17077 33.1986 4.66409ZM31.4284 21.8789C31.3697 22.1131 31.2563 22.33 31.0973 22.5117C30.9384 22.6934 30.7386 22.8347 30.5143 22.924C25.6393 24.8024 17.3823 24.7735 17.2939 24.7735C17.2056 24.7735 8.95922 24.8039 4.07812 22.9194C3.85386 22.8301 3.65404 22.6888 3.49512 22.5071C3.3362 22.3254 3.22273 22.1085 3.16406 21.8744C2.79691 20.4743 2.36426 17.8845 2.36426 13.5C2.36426 9.11558 2.79691 6.52573 3.15949 5.12112C3.21816 4.88697 3.33163 4.6701 3.49055 4.4884C3.64947 4.3067 3.84929 4.16537 4.07355 4.07605C8.77184 2.2662 16.613 2.22659 17.2574 2.22659H17.2939C17.3762 2.22659 25.6287 2.19612 30.5098 4.08062C30.734 4.16994 30.9339 4.31127 31.0928 4.49297C31.2517 4.67467 31.3652 4.89154 31.4238 5.12569C31.7864 6.52573 32.2191 9.11558 32.2191 13.5046C32.2191 17.8936 31.791 20.4743 31.4284 21.8789Z" fill="#F8F8F8"/>
</svg>
