<svg width="11" height="7" viewBox="0 0 11 7" fill="none" xmlns="http://www.w3.org/2000/svg">
<path d="M5.7856 5.22874L1.4221 0.982745C1.38693 0.947787 1.34519 0.92015 1.29927 0.901433C1.25335 0.882716 1.20418 0.87329 1.1546 0.873702C1.10502 0.874114 1.05601 0.884355 1.01041 0.903832C0.964811 0.92331 0.923528 0.951637 0.888949 0.987174C0.854371 1.02271 0.827183 1.06475 0.80896 1.11087C0.790736 1.15698 0.781839 1.20625 0.782783 1.25583C0.783727 1.3054 0.794493 1.3543 0.814458 1.39969C0.834424 1.44507 0.863192 1.48605 0.899098 1.52024L5.5241 6.02024C5.59411 6.08836 5.68792 6.12646 5.7856 6.12646C5.88327 6.12646 5.97709 6.08836 6.0471 6.02024L10.6721 1.52024C10.708 1.48605 10.7368 1.44507 10.7567 1.39969C10.7767 1.3543 10.7875 1.3054 10.7884 1.25583C10.7894 1.20625 10.7805 1.15698 10.7622 1.11087C10.744 1.06475 10.7168 1.02271 10.6822 0.987174C10.6477 0.951637 10.6064 0.92331 10.5608 0.903832C10.5152 0.884355 10.4662 0.874114 10.4166 0.873702C10.367 0.87329 10.3178 0.882716 10.2719 0.901433C10.226 0.92015 10.1843 0.947787 10.1491 0.982745L5.7856 5.22874Z" fill="white"/>
</svg>
