<svg width="11" height="16" viewBox="0 0 11 16" fill="none" xmlns="http://www.w3.org/2000/svg">
<path fill-rule="evenodd" clip-rule="evenodd" d="M10.4869 6.87591C10.8155 7.15717 11 7.53841 11 7.93591C11 8.33342 10.8155 8.71466 10.4869 8.99592L3.87155 14.6539C3.70858 14.7932 3.51513 14.9036 3.30223 14.979C3.08934 15.0543 2.86117 15.0931 2.63076 15.093C2.40034 15.093 2.17219 15.0541 1.95934 14.9787C1.74649 14.9033 1.55309 14.7927 1.39021 14.6534C1.22732 14.5141 1.09812 14.3487 1.00999 14.1667C0.921869 13.9846 0.876538 13.7896 0.876593 13.5926C0.876647 13.3956 0.922086 13.2005 1.01031 13.0185C1.09854 12.8365 1.22782 12.6712 1.39079 12.5319L6.76519 7.93591L1.38962 3.33991C1.22198 3.20161 1.08823 3.03615 0.996185 2.85318C0.904139 2.67021 0.855635 2.4734 0.853501 2.27423C0.851368 2.07507 0.895649 1.87753 0.983762 1.69315C1.07187 1.50877 1.20205 1.34124 1.3667 1.20034C1.53135 1.05943 1.72717 0.947975 1.94275 0.872467C2.15831 0.796959 2.38931 0.758912 2.62227 0.760549C2.85522 0.762185 3.08546 0.803471 3.29955 0.881997C3.51364 0.960523 3.70729 1.07472 3.86921 1.21792L10.4869 6.87591Z" fill="#A22929"/>
</svg>
