<svg width="22" height="12" viewBox="0 0 22 12" fill="none" xmlns="http://www.w3.org/2000/svg">
<path d="M21.7075 1.70757L11.7075 11.7076C11.6146 11.8005 11.5043 11.8743 11.3829 11.9246C11.2615 11.975 11.1314 12.0009 11 12.0009C10.8686 12.0009 10.7385 11.975 10.6171 11.9246C10.4957 11.8743 10.3854 11.8005 10.2925 11.7076L0.292507 1.70757C0.104866 1.51993 -0.000549316 1.26543 -0.000549316 1.00007C-0.000549316 0.734704 0.104866 0.480208 0.292507 0.292567C0.480147 0.104927 0.734643 -0.000488281 1.00001 -0.000488281C1.26537 -0.000488281 1.51987 0.104927 1.70751 0.292567L11 9.58632L20.2925 0.292567C20.3854 0.199657 20.4957 0.125957 20.6171 0.0756741C20.7385 0.0253914 20.8686 -0.000488281 21 -0.000488281C21.1314 -0.000488281 21.2615 0.0253914 21.3829 0.0756741C21.5043 0.125957 21.6146 0.199657 21.7075 0.292567C21.8004 0.385477 21.8741 0.495778 21.9244 0.617171C21.9747 0.738564 22.0006 0.868673 22.0006 1.00007C22.0006 1.13146 21.9747 1.26157 21.9244 1.38296C21.8741 1.50436 21.8004 1.61466 21.7075 1.70757Z" fill="#A22929"/>
</svg>
