<svg width="14" height="14" viewBox="0 0 14 14" fill="none" xmlns="http://www.w3.org/2000/svg">
<path fill-rule="evenodd" clip-rule="evenodd" d="M13.5657 1.68241C13.6477 1.60056 13.7127 1.50337 13.7571 1.39638C13.8015 1.2894 13.8244 1.17472 13.8245 1.05889C13.8245 0.943058 13.8018 0.82835 13.7575 0.721311C13.7133 0.614272 13.6484 0.516998 13.5665 0.435045C13.4847 0.353091 13.3875 0.288062 13.2805 0.243671C13.1735 0.199279 13.0588 0.176395 12.943 0.176323C12.8272 0.176252 12.7124 0.198996 12.6054 0.243256C12.4984 0.287516 12.4011 0.352425 12.3191 0.434278L7.00001 5.75341L1.68241 0.434278C1.5169 0.268765 1.29242 0.175781 1.05834 0.175781C0.824274 0.175781 0.599791 0.268765 0.434278 0.434278C0.268765 0.599791 0.175781 0.824274 0.175781 1.05834C0.175781 1.29242 0.268765 1.5169 0.434278 1.68241L5.75341 7.00001L0.434278 12.3176C0.352324 12.3996 0.287315 12.4969 0.242962 12.6039C0.198609 12.711 0.175781 12.8258 0.175781 12.9417C0.175781 13.0576 0.198609 13.1723 0.242962 13.2794C0.287315 13.3865 0.352324 13.4838 0.434278 13.5657C0.599791 13.7313 0.824274 13.8242 1.05834 13.8242C1.17424 13.8242 1.28901 13.8014 1.39609 13.7571C1.50316 13.7127 1.60046 13.6477 1.68241 13.5657L7.00001 8.24661L12.3191 13.5657C12.4847 13.7311 12.7091 13.8238 12.943 13.8237C13.1769 13.8236 13.4012 13.7305 13.5665 13.565C13.7318 13.3995 13.8246 13.1751 13.8245 12.9411C13.8243 12.7072 13.7313 12.4829 13.5657 12.3176L8.24661 7.00001L13.5657 1.68241Z" fill="#080808"/>
</svg>
